<svg xmlns="http://www.w3.org/2000/svg" version="1.1" xmlns:xlink="http://www.w3.org/1999/xlink" xmlns:svgjs="http://svgjs.dev/svgjs" width="4096" height="2160" preserveAspectRatio="none" viewBox="0 0 4096 2160"><g mask="url(&quot;#SvgjsMask2350&quot;)" fill="none"><rect width="4096" height="2160" x="0" y="0" fill="url(&quot;#SvgjsLinearGradient2351&quot;)"></rect><path d="M4232.533333333334 2160L0 2160 L0 1672.19Q-79.41 1387.98, 204.8 1308.57Q330.15 1229.12, 409.6 1354.47Q541.26 1281.33, 614.4000000000001 1412.99Q768.25 1362.04, 819.2 1515.88Q880.5 1235.84, 1160.5333333333333 1297.14Q1344.75 1140.03, 1501.8666666666666 1324.25Q1626.83 1244.42, 1706.6666666666665 1369.38Q1901.99 1359.9, 1911.4666666666665 1555.22Q2074.64 1377.06, 2252.7999999999997 1540.24Q2268.26 1350.9, 2457.6 1366.36Q2600.54 1167.96, 2798.9333333333334 1310.9Q3026.9 1197.53, 3140.266666666667 1425.5Q3309.37 1389.8, 3345.066666666667 1558.9Q3492.65 1501.68, 3549.8666666666672 1649.26Q3561.46 1319.52, 3891.2000000000007 1331.12Q4114.9 1213.49, 4232.533333333334 1437.19z" fill="rgba(37, 70, 125, 1)"></path><path d="M4232.533333333334 2160L0 2160 L0 1665.83Q130.51 1455.01, 341.3333333333333 1585.52Q601.7 1504.55, 682.6666666666666 1764.91Q895.73 1636.64, 1024 1849.71Q1211.66 1696.03, 1365.3333333333333 1883.69Q1382.6 1696.16, 1570.1333333333332 1713.42Q1703.71 1505.66, 1911.4666666666665 1639.24Q2074.18 1597.15, 2116.2666666666664 1759.87Q2240.4 1542.67, 2457.6 1666.81Q2577.74 1582.14, 2662.4 1702.28Q2827.52 1526.07, 3003.7333333333336 1691.19Q3129.36 1475.48, 3345.066666666667 1601.1Q3456.15 1507.38, 3549.8666666666672 1618.46Q3881.76 1609.02, 3891.2000000000007 1940.92Q3918.22 1626.6, 4232.533333333334 1653.62z" fill="rgba(53, 108, 177, 1)"></path><path d="M4300.800000000001 2160L0 2160 L0 1983.99Q168.33 1810.98, 341.3333333333333 1979.31Q477.07 1910.25, 546.1333333333333 2045.99Q782.28 1940.8, 887.4666666666667 2176.95Q971.32 2056, 1092.2666666666667 2139.85Q1319.02 2025.27, 1433.6 2252.02Q1494.81 1971.89, 1774.9333333333332 2033.1Q1870.73 1924.1, 1979.7333333333331 2019.89Q2191.96 1890.78, 2321.0666666666666 2103.01Q2538.68 1979.29, 2662.4 2196.9Q2677.26 2006.95, 2867.2000000000003 2021.81Q3017.89 1831.16, 3208.5333333333338 1981.85Q3339.76 1908.27, 3413.333333333334 2039.5Q3631.07 2052.44, 3618.133333333334 2270.18Q3600.41 1911.12, 3959.4666666666676 1893.4Q4208.64 1801.24, 4300.800000000001 2050.42z" fill="rgba(255, 255, 255, 1)"></path></g><defs><mask id="SvgjsMask2350"><rect width="4096" height="2160" fill="#ffffff"></rect></mask><linearGradient x1="88.18%" y1="122.41%" x2="11.82%" y2="-22.41%" gradientUnits="userSpaceOnUse" id="SvgjsLinearGradient2351"><stop stop-color="#0e2a47" offset="0"></stop><stop stop-color="rgba(80, 82, 96, 1)" offset="1"></stop></linearGradient></defs></svg>